# xmcd
#
# Track frame offsets: 
#        183
#        13808
#        25495
#        36533
#        46508
#        62145
#        72245
#        86008
#        95895
#        108920
#        118295
#        127333
#        140095
#        152383
#        164145
#        177808
#        190920
#        201483
#        211395
#        222033
#        233008
#        243020
#        252695
#        263895
#        275083
#        286558
#
# Disc length: 3961 seconds
#
# Revision: 2
# Processed by: cddbd v1.5.1PL2 Copyright (c) Steve Scherf et al.
# Submitted via: ExactAudioCopy v0.95b3
#
DISCID=940f771a
DTITLE=Patsy Cline - The Wonderful World of Patsy Cline
DYEAR=1900
DGENRE=Crossover
TTITLE0=She's Got You
TTITLE1=Sweet Dreams (Of You)
TTITLE2=Leavin' on Your Mind
TTITLE3=Foolin' 'Round
TTITLE4=Why Can't He Be You
TTITLE5=I Love You So Much It Hurts
TTITLE6=You Belong to Me
TTITLE7=Heartaches
TTITLE8=You're Stronger than Me
TTITLE9=Back in Baby's Arms
TTITLE10=Walkin' After Midnight
TTITLE11=I Fall to Pieces
TTITLE12=Crazy
TTITLE13=A Poor Man's Roses
TTITLE14=So Wrong
TTITLE15=Imagine That
TTITLE16=San Antonio Rose
TTITLE17=Seven Lonely Days
TTITLE18=Your Cheatin' Heart
TTITLE19=South of the Border
TTITLE20=Strange
TTITLE21=True Love
TTITLE22=I Can't Forget You
TTITLE23=A Stranger in My Arms
TTITLE24=Crazy Dreams
TTITLE25=I Love You Honey
EXTD=
EXTT0=
EXTT1=
EXTT2=
EXTT3=
EXTT4=
EXTT5=
EXTT6=
EXTT7=
EXTT8=
EXTT9=
EXTT10=
EXTT11=
EXTT12=
EXTT13=
EXTT14=
EXTT15=
EXTT16=
EXTT17=
EXTT18=
EXTT19=
EXTT20=
EXTT21=
EXTT22=
EXTT23=
EXTT24=
EXTT25=
PLAYORDER=
